<?xml version="1.0" standalone="no"?>
<!DOCTYPE svg PUBLIC "-//W3C//DTD SVG 20010904//EN"
 "http://www.w3.org/TR/2001/REC-SVG-20010904/DTD/svg10.dtd">
<svg version="1.0" xmlns="http://www.w3.org/2000/svg"
 width="512.000000pt" height="512.000000pt" viewBox="0 0 512.000000 512.000000"
 preserveAspectRatio="xMidYMid meet">
<metadata>
Created by potrace 1.11, written by Peter Selinger 2001-2013
</metadata>
<g transform="translate(0.000000,512.000000) scale(0.100000,-0.100000)"
fill="#000000" stroke="none">
<path d="M3258 3305 c-2 -2 -25 -5 -53 -8 -147 -17 -297 -87 -412 -195 -23
-22 -45 -38 -48 -36 -3 2 -3 1 0 -2 2 -4 -9 -23 -26 -42 -17 -19 -35 -45 -41
-58 l-11 -24 -1111 -1 c-611 -1 -1124 -3 -1139 -5 -41 -4 -146 -57 -183 -91
-84 -77 -127 -176 -126 -292 1 -131 70 -249 185 -315 101 -58 51 -56 1258 -56
l1107 0 38 -51 c65 -89 153 -167 249 -221 312 -176 715 -93 939 193 l61 79
355 1 c195 0 364 2 375 3 197 26 339 184 337 378 -1 151 -81 274 -222 342
l-65 31 -393 3 -392 3 -24 37 c-117 184 -346 312 -580 325 -42 2 -77 3 -78 2z
m210 -76 c221 -58 391 -209 476 -421 35 -88 41 -130 41 -263 -1 -137 -26 -225
-96 -344 -59 -102 -192 -219 -310 -274 -110 -51 -299 -69 -423 -40 -255 58
-453 249 -522 503 -18 68 -24 224 -11 295 39 214 191 409 389 500 140 64 315
81 456 44z m-844 -359 c-79 -203 -87 -364 -25 -547 19 -54 24 -83 17 -85 -6
-2 -500 -3 -1097 -3 l-1086 1 -60 23 c-139 52 -216 170 -209 323 7 142 112
264 252 293 33 6 425 10 1133 10 957 0 1081 -2 1075 -15z m2096 0 c25 -7 58
-19 73 -27 37 -19 109 -92 126 -129 7 -16 18 -37 23 -47 5 -11 12 -49 15 -85
11 -145 -76 -276 -221 -329 -33 -12 -105 -15 -396 -16 -410 -1 -368 -17 -325
123 44 145 39 302 -14 450 l-28 75 351 -1 c245 -1 365 -5 396 -14z"/>
</g>
</svg>
